<mxfile host="app.diagrams.net" agent="Mozilla/5.0 (X11; Linux x86_64) AppleWebKit/537.36 (KHTML, like Gecko) Chrome/122.0.0.0 YaBrowser/24.4.0.0 Safari/537.36" version="24.7.12">
  <diagram id="9M8S0-pwg63M9ygV1Rd6" name="Страница — 2">
    <mxGraphModel dx="1949" dy="1114" grid="1" gridSize="10" guides="1" tooltips="1" connect="1" arrows="1" fold="1" page="1" pageScale="1" pageWidth="827" pageHeight="1169" math="0" shadow="0">
      <root>
        <mxCell id="0" />
        <mxCell id="1" parent="0" />
        <mxCell id="-4PChRUOlGmGMZ6kGCP4-1" style="edgeStyle=orthogonalEdgeStyle;rounded=0;orthogonalLoop=1;jettySize=auto;html=1;exitX=0.5;exitY=1;exitDx=0;exitDy=0;entryX=0.5;entryY=0;entryDx=0;entryDy=0;strokeColor=#23445D;" parent="1" source="-4PChRUOlGmGMZ6kGCP4-2" target="-4PChRUOlGmGMZ6kGCP4-9" edge="1">
          <mxGeometry relative="1" as="geometry" />
        </mxCell>
        <mxCell id="-4PChRUOlGmGMZ6kGCP4-2" value="Start" style="rounded=1;whiteSpace=wrap;html=1;strokeColor=#FFFFFF;fontColor=#FFFFFF;fillColor=#182E3E;" parent="1" vertex="1">
          <mxGeometry x="320" y="40" width="120" height="60" as="geometry" />
        </mxCell>
        <mxCell id="-4PChRUOlGmGMZ6kGCP4-3" value="End" style="rounded=1;whiteSpace=wrap;html=1;strokeColor=#FFFFFF;fontColor=#FFFFFF;fillColor=#182E3E;" parent="1" vertex="1">
          <mxGeometry x="350" y="1000" width="120" height="60" as="geometry" />
        </mxCell>
        <mxCell id="-4PChRUOlGmGMZ6kGCP4-6" style="edgeStyle=orthogonalEdgeStyle;rounded=0;orthogonalLoop=1;jettySize=auto;html=1;entryX=0.5;entryY=0;entryDx=0;entryDy=0;strokeColor=#23445D;" parent="1" source="-4PChRUOlGmGMZ6kGCP4-7" target="-4PChRUOlGmGMZ6kGCP4-3" edge="1">
          <mxGeometry relative="1" as="geometry" />
        </mxCell>
        <mxCell id="-4PChRUOlGmGMZ6kGCP4-7" value="print(filtered_array)" style="shape=document;whiteSpace=wrap;html=1;boundedLbl=1;strokeColor=#FFFFFF;fontColor=#FFFFFF;fillColor=#182E3E;" parent="1" vertex="1">
          <mxGeometry x="750" y="860" width="120" height="80" as="geometry" />
        </mxCell>
        <mxCell id="VxdGAOMLdxVTuWAf6NG4-18" style="edgeStyle=orthogonalEdgeStyle;rounded=0;orthogonalLoop=1;jettySize=auto;html=1;exitX=0.5;exitY=1;exitDx=0;exitDy=0;" edge="1" parent="1" source="-4PChRUOlGmGMZ6kGCP4-9" target="VxdGAOMLdxVTuWAf6NG4-15">
          <mxGeometry relative="1" as="geometry" />
        </mxCell>
        <mxCell id="-4PChRUOlGmGMZ6kGCP4-9" value="n&lt;div&gt;input_array = []&lt;br&gt;&lt;/div&gt;" style="shape=parallelogram;perimeter=parallelogramPerimeter;whiteSpace=wrap;html=1;fixedSize=1;strokeColor=#FFFFFF;fontColor=#FFFFFF;fillColor=#182E3E;" parent="1" vertex="1">
          <mxGeometry x="320" y="130" width="120" height="60" as="geometry" />
        </mxCell>
        <mxCell id="VxdGAOMLdxVTuWAf6NG4-2" value="" style="shape=hexagon;perimeter=hexagonPerimeter2;whiteSpace=wrap;html=1;fixedSize=1;fillColor=#182E3E;" vertex="1" parent="1">
          <mxGeometry x="322" y="280" width="110" height="50" as="geometry" />
        </mxCell>
        <mxCell id="VxdGAOMLdxVTuWAf6NG4-24" style="edgeStyle=orthogonalEdgeStyle;rounded=0;orthogonalLoop=1;jettySize=auto;html=1;exitX=0.75;exitY=1;exitDx=0;exitDy=0;entryX=0.5;entryY=0;entryDx=0;entryDy=0;" edge="1" parent="1" source="VxdGAOMLdxVTuWAf6NG4-5" target="VxdGAOMLdxVTuWAf6NG4-23">
          <mxGeometry relative="1" as="geometry" />
        </mxCell>
        <mxCell id="VxdGAOMLdxVTuWAf6NG4-5" value="&lt;div style=&quot;&quot;&gt;&lt;font color=&quot;#fbf4f4&quot;&gt;&lt;span style=&quot;font-size: 11px;&quot;&gt;for i in range(n)&lt;/span&gt;&lt;/font&gt;&lt;br&gt;&lt;/div&gt;" style="text;align=center;html=1;verticalAlign=middle;whiteSpace=wrap;rounded=0;" vertex="1" parent="1">
          <mxGeometry x="267" y="280" width="220" height="30" as="geometry" />
        </mxCell>
        <mxCell id="VxdGAOMLdxVTuWAf6NG4-11" value="" style="group" vertex="1" connectable="0" parent="1">
          <mxGeometry x="229.5" y="367.5" width="295" height="65" as="geometry" />
        </mxCell>
        <mxCell id="VxdGAOMLdxVTuWAf6NG4-8" value="" style="whiteSpace=wrap;html=1;fillColor=#182E3E;" vertex="1" parent="VxdGAOMLdxVTuWAf6NG4-11">
          <mxGeometry x="37.5" y="2.5" width="220" height="60" as="geometry" />
        </mxCell>
        <mxCell id="VxdGAOMLdxVTuWAf6NG4-9" value="&lt;div&gt;&lt;font color=&quot;#f8f7f7&quot;&gt;string = input(f&quot;Введите строку {i + 1}: &quot;)&lt;/font&gt;&lt;/div&gt;&lt;div&gt;&lt;font color=&quot;#f8f7f7&quot;&gt;&amp;nbsp; &amp;nbsp; &amp;nbsp; &amp;nbsp; input_array.append(string)&lt;/font&gt;&lt;/div&gt;" style="text;strokeColor=none;align=center;fillColor=none;html=1;verticalAlign=middle;whiteSpace=wrap;rounded=0;" vertex="1" parent="VxdGAOMLdxVTuWAf6NG4-11">
          <mxGeometry width="295" height="65" as="geometry" />
        </mxCell>
        <mxCell id="VxdGAOMLdxVTuWAf6NG4-12" style="edgeStyle=orthogonalEdgeStyle;rounded=0;orthogonalLoop=1;jettySize=auto;html=1;exitX=0.5;exitY=1;exitDx=0;exitDy=0;" edge="1" parent="1" source="VxdGAOMLdxVTuWAf6NG4-2" target="VxdGAOMLdxVTuWAf6NG4-9">
          <mxGeometry relative="1" as="geometry">
            <Array as="points" />
          </mxGeometry>
        </mxCell>
        <mxCell id="VxdGAOMLdxVTuWAf6NG4-13" style="edgeStyle=orthogonalEdgeStyle;rounded=0;orthogonalLoop=1;jettySize=auto;html=1;exitX=0.5;exitY=1;exitDx=0;exitDy=0;entryX=0.25;entryY=1;entryDx=0;entryDy=0;" edge="1" parent="1" source="VxdGAOMLdxVTuWAf6NG4-9" target="VxdGAOMLdxVTuWAf6NG4-5">
          <mxGeometry relative="1" as="geometry">
            <Array as="points">
              <mxPoint x="377" y="453" />
              <mxPoint x="210" y="453" />
              <mxPoint x="210" y="300" />
              <mxPoint x="327" y="300" />
              <mxPoint x="327" y="310" />
            </Array>
          </mxGeometry>
        </mxCell>
        <mxCell id="VxdGAOMLdxVTuWAf6NG4-19" style="edgeStyle=orthogonalEdgeStyle;rounded=0;orthogonalLoop=1;jettySize=auto;html=1;exitX=0.5;exitY=1;exitDx=0;exitDy=0;entryX=0.5;entryY=0;entryDx=0;entryDy=0;" edge="1" parent="1" source="VxdGAOMLdxVTuWAf6NG4-15" target="VxdGAOMLdxVTuWAf6NG4-5">
          <mxGeometry relative="1" as="geometry" />
        </mxCell>
        <mxCell id="VxdGAOMLdxVTuWAf6NG4-22" value="" style="group" vertex="1" connectable="0" parent="1">
          <mxGeometry x="320" y="210" width="112.5" height="40" as="geometry" />
        </mxCell>
        <mxCell id="VxdGAOMLdxVTuWAf6NG4-15" value="" style="rounded=1;whiteSpace=wrap;html=1;fillColor=#182E3E;" vertex="1" parent="VxdGAOMLdxVTuWAf6NG4-22">
          <mxGeometry width="110" height="40" as="geometry" />
        </mxCell>
        <mxCell id="VxdGAOMLdxVTuWAf6NG4-21" value="&lt;font color=&quot;#ffffff&quot;&gt;input_array = []&lt;/font&gt;" style="text;strokeColor=none;align=center;fillColor=none;html=1;verticalAlign=middle;whiteSpace=wrap;rounded=0;" vertex="1" parent="VxdGAOMLdxVTuWAf6NG4-22">
          <mxGeometry x="7.5" y="5" width="105" height="30" as="geometry" />
        </mxCell>
        <mxCell id="VxdGAOMLdxVTuWAf6NG4-31" style="edgeStyle=orthogonalEdgeStyle;rounded=0;orthogonalLoop=1;jettySize=auto;html=1;exitX=0.5;exitY=1;exitDx=0;exitDy=0;entryX=0.5;entryY=0;entryDx=0;entryDy=0;" edge="1" parent="1" source="VxdGAOMLdxVTuWAf6NG4-23" target="VxdGAOMLdxVTuWAf6NG4-29">
          <mxGeometry relative="1" as="geometry" />
        </mxCell>
        <mxCell id="VxdGAOMLdxVTuWAf6NG4-23" value="&lt;font color=&quot;#ffffff&quot;&gt;filtered_array = filter_strings(input_array)&lt;/font&gt;" style="rounded=0;whiteSpace=wrap;html=1;fillColor=#182E3E;" vertex="1" parent="1">
          <mxGeometry x="580" y="368" width="160" height="60" as="geometry" />
        </mxCell>
        <mxCell id="VxdGAOMLdxVTuWAf6NG4-27" value="" style="group" vertex="1" connectable="0" parent="1">
          <mxGeometry x="556.25" y="520" width="220" height="60" as="geometry" />
        </mxCell>
        <mxCell id="VxdGAOMLdxVTuWAf6NG4-25" value="" style="shape=hexagon;perimeter=hexagonPerimeter2;whiteSpace=wrap;html=1;fixedSize=1;fillColor=#182E3E;" vertex="1" parent="VxdGAOMLdxVTuWAf6NG4-27">
          <mxGeometry x="45" width="130" height="60" as="geometry" />
        </mxCell>
        <mxCell id="VxdGAOMLdxVTuWAf6NG4-47" style="edgeStyle=orthogonalEdgeStyle;rounded=0;orthogonalLoop=1;jettySize=auto;html=1;" edge="1" parent="VxdGAOMLdxVTuWAf6NG4-27" source="VxdGAOMLdxVTuWAf6NG4-26">
          <mxGeometry relative="1" as="geometry">
            <mxPoint x="253.75" y="340" as="targetPoint" />
          </mxGeometry>
        </mxCell>
        <mxCell id="VxdGAOMLdxVTuWAf6NG4-26" value="&lt;div style=&quot;&quot;&gt;&lt;font color=&quot;#fbf4f4&quot;&gt;&lt;span style=&quot;font-size: 11px;&quot;&gt;for string in input_array&lt;/span&gt;&lt;/font&gt;&lt;br&gt;&lt;/div&gt;" style="text;align=center;html=1;verticalAlign=middle;whiteSpace=wrap;rounded=0;" vertex="1" parent="VxdGAOMLdxVTuWAf6NG4-27">
          <mxGeometry x="50.01" y="15" width="124.99" height="30" as="geometry" />
        </mxCell>
        <mxCell id="VxdGAOMLdxVTuWAf6NG4-28" value="" style="group" vertex="1" connectable="0" parent="1">
          <mxGeometry x="610" y="450" width="112.5" height="40" as="geometry" />
        </mxCell>
        <mxCell id="VxdGAOMLdxVTuWAf6NG4-29" value="" style="rounded=1;whiteSpace=wrap;html=1;fillColor=#182E3E;" vertex="1" parent="VxdGAOMLdxVTuWAf6NG4-28">
          <mxGeometry width="110" height="40" as="geometry" />
        </mxCell>
        <mxCell id="VxdGAOMLdxVTuWAf6NG4-30" value="&lt;font color=&quot;#ffffff&quot;&gt;filtered_array = []&lt;/font&gt;" style="text;strokeColor=none;align=center;fillColor=none;html=1;verticalAlign=middle;whiteSpace=wrap;rounded=0;" vertex="1" parent="VxdGAOMLdxVTuWAf6NG4-28">
          <mxGeometry x="7.5" y="5" width="105" height="30" as="geometry" />
        </mxCell>
        <mxCell id="VxdGAOMLdxVTuWAf6NG4-32" style="edgeStyle=orthogonalEdgeStyle;rounded=0;orthogonalLoop=1;jettySize=auto;html=1;exitX=0.5;exitY=1;exitDx=0;exitDy=0;entryX=0.5;entryY=0;entryDx=0;entryDy=0;" edge="1" parent="1" source="VxdGAOMLdxVTuWAf6NG4-30" target="VxdGAOMLdxVTuWAf6NG4-25">
          <mxGeometry relative="1" as="geometry" />
        </mxCell>
        <mxCell id="VxdGAOMLdxVTuWAf6NG4-39" style="edgeStyle=orthogonalEdgeStyle;rounded=0;orthogonalLoop=1;jettySize=auto;html=1;exitX=0.5;exitY=1;exitDx=0;exitDy=0;entryX=0.5;entryY=0;entryDx=0;entryDy=0;" edge="1" parent="1" source="VxdGAOMLdxVTuWAf6NG4-33" target="VxdGAOMLdxVTuWAf6NG4-37">
          <mxGeometry relative="1" as="geometry" />
        </mxCell>
        <mxCell id="VxdGAOMLdxVTuWAf6NG4-42" style="edgeStyle=orthogonalEdgeStyle;rounded=0;orthogonalLoop=1;jettySize=auto;html=1;exitX=1;exitY=0.5;exitDx=0;exitDy=0;entryX=0.194;entryY=1;entryDx=0;entryDy=0;entryPerimeter=0;" edge="1" parent="1" source="VxdGAOMLdxVTuWAf6NG4-33" target="VxdGAOMLdxVTuWAf6NG4-26">
          <mxGeometry relative="1" as="geometry">
            <mxPoint x="490" y="560" as="targetPoint" />
            <Array as="points">
              <mxPoint x="800" y="650" />
              <mxPoint x="800" y="810" />
              <mxPoint x="500" y="810" />
              <mxPoint x="500" y="560" />
              <mxPoint x="609" y="560" />
            </Array>
          </mxGeometry>
        </mxCell>
        <mxCell id="VxdGAOMLdxVTuWAf6NG4-33" value="&lt;font color=&quot;#ffffff&quot;&gt;len(string) &amp;lt;= 3:&lt;/font&gt;" style="rhombus;whiteSpace=wrap;html=1;fillColor=#182E3E;" vertex="1" parent="1">
          <mxGeometry x="614.38" y="600" width="103.75" height="100" as="geometry" />
        </mxCell>
        <mxCell id="VxdGAOMLdxVTuWAf6NG4-34" style="edgeStyle=orthogonalEdgeStyle;rounded=0;orthogonalLoop=1;jettySize=auto;html=1;exitX=0.5;exitY=1;exitDx=0;exitDy=0;entryX=0.5;entryY=0;entryDx=0;entryDy=0;" edge="1" parent="1" source="VxdGAOMLdxVTuWAf6NG4-25" target="VxdGAOMLdxVTuWAf6NG4-33">
          <mxGeometry relative="1" as="geometry" />
        </mxCell>
        <mxCell id="VxdGAOMLdxVTuWAf6NG4-35" value="" style="group" vertex="1" connectable="0" parent="1">
          <mxGeometry x="560" y="720" width="215" height="55" as="geometry" />
        </mxCell>
        <mxCell id="VxdGAOMLdxVTuWAf6NG4-36" value="" style="whiteSpace=wrap;html=1;fillColor=#182E3E;" vertex="1" parent="VxdGAOMLdxVTuWAf6NG4-35">
          <mxGeometry x="27.33050847457627" y="2.1153846153846154" width="160.33898305084745" height="50.769230769230774" as="geometry" />
        </mxCell>
        <mxCell id="VxdGAOMLdxVTuWAf6NG4-46" style="edgeStyle=orthogonalEdgeStyle;rounded=0;orthogonalLoop=1;jettySize=auto;html=1;exitX=0.5;exitY=1;exitDx=0;exitDy=0;" edge="1" parent="VxdGAOMLdxVTuWAf6NG4-35" source="VxdGAOMLdxVTuWAf6NG4-37">
          <mxGeometry relative="1" as="geometry">
            <mxPoint x="108" y="90" as="targetPoint" />
          </mxGeometry>
        </mxCell>
        <mxCell id="VxdGAOMLdxVTuWAf6NG4-37" value="&lt;font color=&quot;#f8f7f7&quot;&gt;filtered_array.append(string)&lt;/font&gt;" style="text;strokeColor=none;align=center;fillColor=none;html=1;verticalAlign=middle;whiteSpace=wrap;rounded=0;" vertex="1" parent="VxdGAOMLdxVTuWAf6NG4-35">
          <mxGeometry width="214.99999999999997" height="55.00000000000001" as="geometry" />
        </mxCell>
        <mxCell id="VxdGAOMLdxVTuWAf6NG4-40" value="yes" style="text;html=1;align=center;verticalAlign=middle;resizable=0;points=[];autosize=1;strokeColor=none;fillColor=none;" vertex="1" parent="1">
          <mxGeometry x="630" y="690" width="40" height="30" as="geometry" />
        </mxCell>
        <mxCell id="VxdGAOMLdxVTuWAf6NG4-45" value="no&lt;div&gt;&lt;br&gt;&lt;/div&gt;" style="text;html=1;align=center;verticalAlign=middle;resizable=0;points=[];autosize=1;strokeColor=none;fillColor=none;" vertex="1" parent="1">
          <mxGeometry x="710" y="630" width="40" height="40" as="geometry" />
        </mxCell>
        <mxCell id="VxdGAOMLdxVTuWAf6NG4-55" value="yes" style="text;html=1;align=center;verticalAlign=middle;resizable=0;points=[];autosize=1;strokeColor=none;fillColor=none;" vertex="1" parent="1">
          <mxGeometry x="340" y="338" width="40" height="30" as="geometry" />
        </mxCell>
        <mxCell id="VxdGAOMLdxVTuWAf6NG4-56" value="no" style="text;html=1;align=center;verticalAlign=middle;resizable=0;points=[];autosize=1;strokeColor=none;fillColor=none;" vertex="1" parent="1">
          <mxGeometry x="420" y="290" width="40" height="30" as="geometry" />
        </mxCell>
      </root>
    </mxGraphModel>
  </diagram>
</mxfile>
